<?xml version="1.0" encoding="utf-8"?>
<!-- Generator: Adobe Illustrator 28.1.0, SVG Export Plug-In . SVG Version: 6.00 Build 0)  -->
<svg version="1.1" id="Layer_1" xmlns="http://www.w3.org/2000/svg" xmlns:xlink="http://www.w3.org/1999/xlink" x="0px" y="0px"
	 viewBox="0 0 790.29 318" style="enable-background:new 0 0 790.29 318;" xml:space="preserve">
<style type="text/css">
	.st0{fill:#F87000;}
	.st1{fill:#FFFFFF;}
</style>
<g>
	<g>
		<g>
			<g>
				<g>
					<path class="st0" d="M254.84,289.87c-10.05,0-19.49-3.91-26.59-11.01c-7.11-7.09-11.02-16.53-11.02-26.59
						c0-10.03,3.91-19.48,11-26.56c7.11-7.11,16.55-11.02,26.6-11.02c10.04,0,19.48,3.9,26.58,11c14.66,14.66,14.66,38.52,0,53.18
						C274.31,285.97,264.87,289.87,254.84,289.87z"/>
				</g>
				<g>
					<path class="st0" d="M50.61,89.41c-10.05,0-19.49-3.91-26.6-11.02C16.91,71.3,13,61.86,13,51.81c0-10.04,3.9-19.48,11-26.56
						c7.11-7.11,16.56-11.03,26.61-11.03c10.03,0,19.48,3.91,26.56,11c7.11,7.11,11.02,16.55,11.02,26.59
						c0,10.05-3.91,19.49-11.02,26.59C70.08,85.5,60.65,89.41,50.61,89.41z"/>
				</g>
				<path class="st0" d="M253.16,88.31c-10.05,0-19.49-3.91-26.59-11.01c-14.65-14.66-14.67-38.51-0.02-53.15
					c7.11-7.11,16.55-11.02,26.6-11.02c10.04,0,19.48,3.91,26.58,11.01c14.65,14.65,14.65,38.51,0,53.19
					C272.64,84.4,263.19,88.31,253.16,88.31z"/>
				<g>
					<path class="st0" d="M51.59,289.87c-10.05,0-19.49-3.91-26.6-11.01c-7.1-7.1-11.01-16.53-11-26.58
						c0-10.04,3.92-19.48,11.02-26.58c1.49-1.5,3.16-2.87,5.29-4.3c0.64-0.45,1.23-0.8,1.85-1.18c1.39-0.8,2.78-1.53,4.07-2.12
						c0.7-0.31,1.43-0.64,2.19-0.93c1.35-0.5,2.86-0.95,4.58-1.36c0.34-0.09,0.65-0.17,0.96-0.26c0.19-0.05,0.38-0.12,0.58-0.16
						l8.37-0.57c1.06,0.05,2.2,0.18,3.41,0.34l0.48,0.07c0.28,0.03,0.67,0.06,1.05,0.09l0.34,0.02l0.38,0.08h0.33
						c0.61,0.02,1.22,0.03,1.83,0.03c14.43,0,28.67-6.14,39.07-16.85c10.36-10.66,16.07-25,15.66-39.35l-0.01-0.42l-0.08-0.44
						c-0.08-0.4-0.1-0.81-0.13-1.21c-0.04-0.48-0.08-0.96-0.14-1.44l-0.09-0.84c-0.08-0.72-0.16-1.43-0.21-2.15l0.64-8.4
						c0.04-0.21,0.12-0.4,0.17-0.61l0.15-0.52c0.39-1.59,0.8-3.19,1.4-4.73c0.31-0.88,0.61-1.52,0.93-2.19
						c0.67-1.47,1.36-2.8,2.18-4.17c0.35-0.59,0.7-1.19,1.11-1.78c1.52-2.21,2.9-3.91,4.33-5.34c7.1-7.1,16.54-11.01,26.6-11.01
						c10.04,0,19.49,3.9,26.6,11c14.64,14.66,14.63,38.51-0.03,53.18c-1.48,1.49-3.16,2.85-5.3,4.31c-0.62,0.42-1.22,0.78-1.81,1.13
						c-1.35,0.81-2.71,1.53-4.07,2.15c-0.73,0.33-1.47,0.67-2.18,0.93c-1.44,0.54-2.96,0.99-4.57,1.35l-0.9,0.25
						c-0.2,0.06-0.4,0.12-0.61,0.17l-8.45,0.6c-0.99-0.04-2.03-0.17-3.13-0.32l-0.75-0.09c-0.25-0.04-0.65-0.07-1.04-0.09l-0.3-0.03
						l-0.43-0.08h-0.34c-0.62-0.02-1.22-0.03-1.83-0.03c-14.43,0-28.66,6.14-39.06,16.84c-10.37,10.66-16.07,25.01-15.67,39.36
						l0.01,0.43l0.08,0.42c0.08,0.41,0.09,0.81,0.13,1.22c0.03,0.48,0.08,0.96,0.13,1.44c0.02,0.29,0.07,0.8,0.14,1.31
						c0.06,0.58,0.14,1.14,0.14,1.71v0.2l-0.61,8.05c-0.04,0.17-0.31,1.1-0.38,1.39c-0.41,1.74-0.87,3.27-1.38,4.65
						c-0.28,0.77-0.56,1.43-0.9,2.13c-0.65,1.43-1.36,2.8-2.17,4.19c-0.36,0.57-0.77,1.24-1.2,1.88c-1.4,2.03-2.78,3.73-4.27,5.22
						C71.08,285.95,61.64,289.87,51.59,289.87L51.59,289.87z"/>
				</g>
				<path class="st0" d="M153.11,289.87c-10.05,0-19.5-3.91-26.6-11.02c-7.1-7.1-11.01-16.53-11.01-26.58
					c-0.01-10.03,3.9-19.47,10.99-26.55c1.45-1.46,3.09-2.8,5.34-4.35c0.56-0.38,1.16-0.75,1.79-1.11c1.38-0.83,2.71-1.53,4.09-2.16
					c0.73-0.33,1.45-0.66,2.18-0.94c1.4-0.51,2.92-0.96,4.53-1.32c0,0,1.32-0.38,1.49-0.42l8.5-0.62c1,0.05,2.09,0.19,3.22,0.34
					l0.63,0.08c0.42,0.04,0.77,0.08,1.12,0.08c0.14,0.01,0.28,0.01,0.41,0.02l0.27,0.04l0.36,0.04c0.62,0.02,1.25,0.03,1.88,0.03
					c14.4-0.01,28.61-6.14,39-16.83c10.36-10.65,16.07-25.01,15.66-39.36l-0.05-1.75l-0.16-0.19c-0.01-0.06-0.01-0.13-0.01-0.19
					c-0.02-0.41-0.05-0.82-0.09-1.23l-0.14-1.21c-0.08-0.66-0.16-1.32-0.19-1.98l0.58-8.14c0.05-0.2,0.34-1.21,0.41-1.51
					c0.48-1.94,0.9-3.37,1.38-4.63c0.27-0.76,0.59-1.45,0.93-2.18c0.6-1.31,1.3-2.64,2.17-4.11l0.16-0.27
					c0.29-0.49,0.57-0.98,0.91-1.46c1.54-2.24,2.91-3.93,4.35-5.37c7.11-7.11,16.56-11.02,26.6-11.02c10.04,0,19.48,3.91,26.57,11
					c14.65,14.65,14.65,38.52,0,53.19c-1.42,1.42-3.12,2.78-5.32,4.31c-0.43,0.29-0.83,0.54-1.24,0.78l-0.66,0.41
					c-1.26,0.75-2.63,1.46-3.96,2.07c-0.75,0.34-1.46,0.66-2.21,0.94c-1.32,0.5-2.77,0.92-4.59,1.35c-0.37,0.09-0.66,0.18-0.96,0.27
					c-0.2,0.05-0.4,0.12-0.59,0.16l-8.36,0.58c-1.22-0.05-2.55-0.23-3.83-0.4c-0.44-0.05-0.78-0.07-1.11-0.09
					c-0.13-0.01-0.25-0.01-0.38-0.02l-0.71-0.08c-0.62-0.02-1.24-0.04-1.86-0.04c-14.41,0-28.63,6.14-39.02,16.83
					c-10.35,10.66-16.06,25.01-15.64,39.37l0.01,0.42l0.08,0.41c0.08,0.42,0.1,0.86,0.13,1.29c0.03,0.44,0.06,0.87,0.11,1.3
					c0.03,0.36,0.08,0.81,0.13,1.25c0.08,0.64,0.15,1.28,0.17,1.91l-0.62,8.25c-0.05,0.18-0.37,1.29-0.37,1.29
					c-0.4,1.75-0.85,3.28-1.38,4.72c-0.25,0.68-0.55,1.33-0.85,2.01l-0.1,0.24c-0.62,1.34-1.32,2.67-2.1,3.97
					c-0.38,0.64-0.76,1.27-1.16,1.86c-1.47,2.14-2.86,3.84-4.35,5.33C172.57,285.97,163.15,289.87,153.11,289.87L153.11,289.87z"/>
				<path class="st0" d="M51.6,188.36c-10.05,0-19.49-3.91-26.59-11c-7.1-7.11-11.02-16.55-11.02-26.6
					c-0.01-10.04,3.9-19.46,10.99-26.56c1.46-1.46,3.15-2.83,5.33-4.33c0.57-0.38,1.21-0.77,1.85-1.16c1.3-0.77,2.63-1.47,4.04-2.13
					c0.73-0.33,1.45-0.66,2.22-0.94c1.38-0.51,2.91-0.96,4.5-1.31l0.96-0.27c0.18-0.05,0.35-0.11,0.52-0.15l8.51-0.61
					c1.11,0.05,2.3,0.2,3.55,0.37l0.26,0.04c0.44,0.05,0.77,0.06,1.12,0.08c0.12,0.01,0.24,0.01,0.37,0.02l0.37,0.06l0.34,0.01
					c0.63,0.02,1.25,0.03,1.88,0.03c14.39,0,28.61-6.13,39-16.83c10.36-10.66,16.06-25.01,15.64-39.37l-0.01-0.41l-0.08-0.41
					c-0.09-0.46-0.1-0.91-0.13-1.38c-0.02-0.38-0.05-0.76-0.09-1.15l-0.13-1.16c-0.09-0.69-0.17-1.39-0.19-2.09l0.57-7.9l0.05-0.18
					v-0.16c0.05-0.18,0.36-1.23,0.36-1.23c0.48-2.02,0.9-3.48,1.38-4.77c0.27-0.71,0.6-1.42,0.94-2.15
					c0.61-1.35,1.33-2.72,2.16-4.11l0.13-0.22c0.33-0.54,0.65-1.08,1.01-1.63c1.49-2.16,2.86-3.85,4.29-5.28
					c7.11-7.11,16.55-11.02,26.6-11.02c10.05,0,19.49,3.91,26.59,11.01c14.65,14.66,14.64,38.52-0.02,53.17
					c-1.45,1.46-3.18,2.86-5.29,4.29c-0.58,0.41-1.07,0.7-1.59,1l-0.28,0.16c-1.38,0.82-2.74,1.54-4.02,2.13
					c-0.76,0.35-1.47,0.67-2.19,0.94c-1.41,0.53-2.91,0.97-4.6,1.36c-0.36,0.09-0.67,0.18-0.99,0.27c-0.19,0.05-0.39,0.12-0.59,0.16
					l-8.33,0.58c-1.05-0.05-2.18-0.19-3.37-0.34l-0.51-0.06c-0.38-0.05-0.74-0.06-1.08-0.09c-0.14-0.01-0.28-0.01-0.42-0.03
					L145.32,87l-0.37-0.03c-0.62-0.02-1.24-0.04-1.86-0.04c-14.4,0-28.61,6.13-39,16.82c-10.36,10.66-16.07,25.02-15.66,39.38
					l0.01,0.42l0.07,0.41c0.09,0.42,0.11,0.86,0.14,1.28c0.03,0.44,0.06,0.87,0.11,1.32c0.04,0.35,0.09,0.8,0.14,1.24
					c0.07,0.63,0.15,1.25,0.16,1.87l-0.6,8.19c-0.04,0.21-0.12,0.42-0.18,0.65l-0.21,0.73c-0.42,1.83-0.86,3.36-1.36,4.72
					c-0.27,0.71-0.61,1.44-0.96,2.2c-0.62,1.35-1.32,2.68-2.13,4.05c-0.39,0.65-0.75,1.26-1.14,1.84c-1.54,2.24-2.87,3.88-4.32,5.32
					C71.06,184.46,61.63,188.36,51.6,188.36L51.6,188.36z"/>
			</g>
		</g>
	</g>
	<g>
		<path class="st1" d="M361.11,143.69c2.55,0,4.63-0.28,6.22-0.84c3.02-1.08,4.54-3.08,4.54-6.01c0-1.71-0.75-3.04-2.25-3.97
			c-1.5-0.91-3.86-1.72-7.07-2.43l-5.48-1.23c-5.39-1.22-9.12-2.54-11.18-3.97c-3.49-2.39-5.24-6.13-5.24-11.21
			c0-4.64,1.69-8.5,5.06-11.57c3.38-3.07,8.33-4.61,14.87-4.61c5.46,0,10.12,1.45,13.97,4.34c3.85,2.9,5.88,7.1,6.06,12.6h-10.41
			c-0.19-3.12-1.55-5.33-4.08-6.64c-1.69-0.87-3.79-1.3-6.29-1.3c-2.79,0-5.02,0.56-6.68,1.69c-1.66,1.12-2.5,2.7-2.5,4.71
			c0,1.85,0.82,3.23,2.46,4.15c1.05,0.61,3.3,1.32,6.75,2.14l8.93,2.14c3.91,0.94,6.87,2.19,8.86,3.76
			c3.09,2.44,4.64,5.96,4.64,10.58c0,4.73-1.81,8.67-5.43,11.79s-8.74,4.69-15.35,4.69c-6.75,0-12.06-1.54-15.93-4.62
			s-5.8-7.32-5.8-12.71h10.34c0.33,2.37,0.97,4.14,1.93,5.31C353.84,142.62,356.85,143.69,361.11,143.69z"/>
		<path class="st1" d="M433.6,128.54h-25.17v13.32h28.69v9.32h-39.27V99.36h38v9.18h-27.42v11h25.17V128.54z"/>
		<path class="st1" d="M462.67,151.18h-10.09V99.36h15.75l9.42,40.75l9.35-40.75h15.57v51.82h-10.09v-35.05
			c0-1.01,0.01-2.42,0.04-4.24c0.02-1.82,0.04-3.22,0.04-4.2l-9.81,43.49h-10.51l-9.74-43.49c0,0.98,0.01,2.39,0.04,4.2
			c0.02,1.82,0.04,3.23,0.04,4.24V151.18z"/>
		<path class="st1" d="M550.27,140.53h-19.09l-3.59,10.65h-11.32l18.49-51.82H547l18.35,51.82h-11.74L550.27,140.53z M547.25,131.6
			l-6.47-20.39l-6.68,20.39H547.25z"/>
		<path class="st1" d="M621.03,151.18H610.2l-21.16-36.81v36.81h-10.09V99.36h11.36l20.64,36.18V99.36h10.09V151.18z"/>
		<path class="st1" d="M675.97,99.36v9.18h-15.5v42.64h-10.9v-42.64H634v-9.18H675.97z"/>
		<path class="st1" d="M688.66,99.36h10.76v51.82h-10.76V99.36z"/>
		<path class="st1" d="M753.27,147.31c-3.87,3.54-8.81,5.31-14.84,5.31c-7.45,0-13.31-2.39-17.58-7.17
			c-4.27-4.8-6.4-11.39-6.4-19.76c0-9.05,2.43-16.02,7.28-20.92c4.22-4.27,9.59-6.4,16.1-6.4c8.72,0,15.09,2.86,19.12,8.58
			c2.23,3.21,3.42,6.43,3.59,9.67h-10.83c-0.7-2.48-1.61-4.36-2.71-5.62c-1.97-2.25-4.89-3.38-8.75-3.38
			c-3.94,0-7.04,1.59-9.32,4.76c-2.27,3.18-3.41,7.67-3.41,13.48c0,5.81,1.2,10.17,3.6,13.06s5.46,4.34,9.16,4.34
			c3.8,0,6.69-1.24,8.68-3.73c1.1-1.34,2.02-3.34,2.74-6.01h10.72C759.5,139.18,757.11,143.77,753.27,147.31z"/>
		<path class="st1" d="M360.66,196.45c17.04,0,29.26,11.62,29.26,28.57c0,15.83-9.81,29.43-28.92,29.43h-17.56v-58H360.66z
			 M360.92,248.35c15.23,0,21.77-11.1,21.77-23.32c0-12.31-8.69-22.38-22.12-22.38H350.5v45.7H360.92z"/>
		<path class="st1" d="M449.91,248.35v6.11h-32.36v-58h31.93v6.11h-24.96v19.88h22.03v6.11h-22.03v19.79H449.91z"/>
		<path class="st1" d="M508.26,205.92c-3.01-1.98-8.09-3.44-12.57-3.44c-7.06,0-11.45,3.62-11.45,8.86c0,5.85,5.59,8.26,11.79,11.02
			c7.32,3.18,15.4,6.71,15.4,16.7c0,10.5-8.17,16.01-18.76,16.01c-5.51,0-11.36-1.29-15.49-3.7v-7.49
			c3.79,2.84,9.64,4.73,15.32,4.73c7.14,0,11.62-3.27,11.62-9.38c0-5.25-4.73-7.66-10.41-10.24c-7.66-3.44-16.78-6.71-16.78-17.3
			c0-10.16,8.35-15.75,18.59-15.75c4.22,0,9.04,0.77,12.74,2.67V205.92z"/>
		<path class="st1" d="M540.71,196.45h6.97v58h-6.97V196.45z"/>
		<path class="st1" d="M623.93,249.64h-0.09l0.09,0.26c-4.13,3.1-10.76,5.25-17.99,5.25c-17.64,0-29.78-11.1-29.78-29.78
			c0-17.73,12.22-29.95,28.66-29.95c5.68,0,11.96,1.03,16.95,3.96v7.49c-5.08-3.36-11.1-4.65-16.35-4.65
			c-12.91,0-21.94,9.04-21.94,23.15c0,14.37,8.52,23.06,22.63,23.06c4.47,0,8.09-1.03,10.84-2.32v-18.07h-12.74v-6.11h19.71V249.64z
			"/>
		<path class="st1" d="M653.54,196.45h8.78l14.54,24.44c10.07,16.78,14.72,25.13,14.72,25.13s-0.34-8.35-0.34-25.04v-24.53h6.97v58
			h-8.78l-14.54-24.27c-9.9-16.44-14.8-25.39-14.8-25.39s0.43,8.95,0.43,25.21v24.44h-6.97V196.45z"/>
		<path class="st1" d="M759.06,205.92c-3.01-1.98-8.09-3.44-12.57-3.44c-7.06,0-11.45,3.62-11.45,8.86c0,5.85,5.59,8.26,11.79,11.02
			c7.32,3.18,15.4,6.71,15.4,16.7c0,10.5-8.17,16.01-18.76,16.01c-5.51,0-11.36-1.29-15.49-3.7v-7.49
			c3.79,2.84,9.64,4.73,15.32,4.73c7.14,0,11.62-3.27,11.62-9.38c0-5.25-4.73-7.66-10.41-10.24c-7.66-3.44-16.78-6.71-16.78-17.3
			c0-10.16,8.35-15.75,18.59-15.75c4.22,0,9.04,0.77,12.74,2.67V205.92z"/>
	</g>
</g>
</svg>
